<svg xmlns="http://www.w3.org/2000/svg" xmlns:xlink="http://www.w3.org/1999/xlink"><g transform="translate(0,0) scale(4)"><svg xmlns="http://www.w3.org/2000/svg" xmlns:xlink="http://www.w3.org/1999/xlink" version="1.1" style="position: absolute; width: 561px; height: 500px; top: 0px; left: 0px;"><desc>JavaScript chart by amCharts 3.21.14</desc><g><path cs="100,100" d="M0.5,0.5 L560.5,0.5 L560.5,499.5 L0.5,499.5 Z" fill="#FFFFFF" stroke="#000000" fill-opacity="0" stroke-width="1" stroke-opacity="0"/><path cs="100,100" d="M0.5,0.5 L441.5,0.5 L441.5,384.5 L0.5,384.5 L0.5,0.5 Z" fill="#FFFFFF" stroke="#000000" fill-opacity="0" stroke-width="1" stroke-opacity="0" transform="translate(99,20)"/><path cs="100,100" d="M0.5,0.5 L17.5,-9.5 L458.5,-9.5 L441.5,0.5 L0.5,0.5 Z" fill="#d9d9d9" stroke="#000000" fill-opacity="0" stroke-width="1" stroke-opacity="0" transform="translate(82,414)"/><path cs="100,100" d="M0.5,0.5 L0.5,384.5 L17.5,374.5 L17.5,-9.5 L0.5,0.5 Z" fill="#d9d9d9" stroke="#000000" fill-opacity="0" stroke-width="1" stroke-opacity="0" transform="translate(82,30)"/></g><g><g transform="translate(82,30)"><g><path cs="100,100" d="M13.5,0.5 L13.5,5.5" fill="none" stroke-width="1" stroke-opacity="1" stroke="#000000" transform="translate(0,384)"/><path cs="100,100" d="M0.5,384.5 L17.5,374.5 L17.5,-9.5" fill="none" stroke-width="1" stroke-opacity="0.15" stroke="#000000"/></g><g><path cs="100,100" d="M65.5,0.5 L65.5,5.5" fill="none" stroke-width="1" stroke-opacity="1" stroke="#000000" transform="translate(0,384)"/><path cs="100,100" d="M52.5,384.5 L69.5,374.5 L69.5,-9.5" fill="none" stroke-width="1" stroke-opacity="0.15" stroke="#000000"/></g><g><path cs="100,100" d="M117.5,0.5 L117.5,5.5" fill="none" stroke-width="1" stroke-opacity="1" stroke="#000000" transform="translate(0,384)"/><path cs="100,100" d="M104.5,384.5 L121.5,374.5 L121.5,-9.5" fill="none" stroke-width="1" stroke-opacity="0.15" stroke="#000000"/></g><g><path cs="100,100" d="M169.5,0.5 L169.5,5.5" fill="none" stroke-width="1" stroke-opacity="1" stroke="#000000" transform="translate(0,384)"/><path cs="100,100" d="M156.5,384.5 L173.5,374.5 L173.5,-9.5" fill="none" stroke-width="1" stroke-opacity="0.15" stroke="#000000"/></g><g><path cs="100,100" d="M221.5,0.5 L221.5,5.5" fill="none" stroke-width="1" stroke-opacity="1" stroke="#000000" transform="translate(0,384)"/><path cs="100,100" d="M208.5,384.5 L225.5,374.5 L225.5,-9.5" fill="none" stroke-width="1" stroke-opacity="0.15" stroke="#000000"/></g><g><path cs="100,100" d="M272.5,0.5 L272.5,5.5" fill="none" stroke-width="1" stroke-opacity="1" stroke="#000000" transform="translate(0,384)"/><path cs="100,100" d="M259.5,384.5 L276.5,374.5 L276.5,-9.5" fill="none" stroke-width="1" stroke-opacity="0.15" stroke="#000000"/></g><g><path cs="100,100" d="M324.5,0.5 L324.5,5.5" fill="none" stroke-width="1" stroke-opacity="1" stroke="#000000" transform="translate(0,384)"/><path cs="100,100" d="M311.5,384.5 L328.5,374.5 L328.5,-9.5" fill="none" stroke-width="1" stroke-opacity="0.15" stroke="#000000"/></g><g><path cs="100,100" d="M376.5,0.5 L376.5,5.5" fill="none" stroke-width="1" stroke-opacity="1" stroke="#000000" transform="translate(0,384)"/><path cs="100,100" d="M363.5,384.5 L380.5,374.5 L380.5,-9.5" fill="none" stroke-width="1" stroke-opacity="0.15" stroke="#000000"/></g><g><path cs="100,100" d="M428.5,0.5 L428.5,5.5" fill="none" stroke-width="1" stroke-opacity="1" stroke="#000000" transform="translate(0,384)"/><path cs="100,100" d="M415.5,384.5 L432.5,374.5 L432.5,-9.5" fill="none" stroke-width="1" stroke-opacity="0.15" stroke="#000000"/></g></g><g transform="translate(82,30)" visibility="visible"><g><path cs="100,100" d="M0.5,384.5 L6.5,384.5" fill="none" stroke-width="1" stroke-opacity="1" stroke="#000000" transform="translate(-6,0)"/><path cs="100,100" d="M0.5,384.5 L17.5,374.5 L458.5,374.5" fill="none" stroke-width="1" stroke-opacity="0.15" stroke="#000000"/></g><g><path cs="100,100" d="M0.5,341.5 L6.5,341.5" fill="none" stroke-width="1" stroke-opacity="1" stroke="#000000" transform="translate(-6,0)"/><path cs="100,100" d="M0.5,341.5 L17.5,331.5 L458.5,331.5" fill="none" stroke-width="1" stroke-opacity="0.15" stroke="#000000"/></g><g><path cs="100,100" d="M0.5,299.5 L6.5,299.5" fill="none" stroke-width="1" stroke-opacity="1" stroke="#000000" transform="translate(-6,0)"/><path cs="100,100" d="M0.5,299.5 L17.5,289.5 L458.5,289.5" fill="none" stroke-width="1" stroke-opacity="0.15" stroke="#000000"/></g><g><path cs="100,100" d="M0.5,256.5 L6.5,256.5" fill="none" stroke-width="1" stroke-opacity="1" stroke="#000000" transform="translate(-6,0)"/><path cs="100,100" d="M0.5,256.5 L17.5,246.5 L458.5,246.5" fill="none" stroke-width="1" stroke-opacity="0.15" stroke="#000000"/></g><g><path cs="100,100" d="M0.5,213.5 L6.5,213.5" fill="none" stroke-width="1" stroke-opacity="1" stroke="#000000" transform="translate(-6,0)"/><path cs="100,100" d="M0.5,213.5 L17.5,203.5 L458.5,203.5" fill="none" stroke-width="1" stroke-opacity="0.15" stroke="#000000"/></g><g><path cs="100,100" d="M0.5,171.5 L6.5,171.5" fill="none" stroke-width="1" stroke-opacity="1" stroke="#000000" transform="translate(-6,0)"/><path cs="100,100" d="M0.5,171.5 L17.5,161.5 L458.5,161.5" fill="none" stroke-width="1" stroke-opacity="0.15" stroke="#000000"/></g><g><path cs="100,100" d="M0.5,128.5 L6.5,128.5" fill="none" stroke-width="1" stroke-opacity="1" stroke="#000000" transform="translate(-6,0)"/><path cs="100,100" d="M0.5,128.5 L17.5,118.5 L458.5,118.5" fill="none" stroke-width="1" stroke-opacity="0.15" stroke="#000000"/></g><g><path cs="100,100" d="M0.5,85.5 L6.5,85.5" fill="none" stroke-width="1" stroke-opacity="1" stroke="#000000" transform="translate(-6,0)"/><path cs="100,100" d="M0.5,85.5 L17.5,75.5 L458.5,75.5" fill="none" stroke-width="1" stroke-opacity="0.15" stroke="#000000"/></g><g><path cs="100,100" d="M0.5,43.5 L6.5,43.5" fill="none" stroke-width="1" stroke-opacity="1" stroke="#000000" transform="translate(-6,0)"/><path cs="100,100" d="M0.5,43.5 L17.5,33.5 L458.5,33.5" fill="none" stroke-width="1" stroke-opacity="0.15" stroke="#000000"/></g><g><path cs="100,100" d="M0.5,0.5 L6.5,0.5" fill="none" stroke-width="1" stroke-opacity="1" stroke="#000000" transform="translate(-6,0)"/><path cs="100,100" d="M0.5,0.5 L17.5,-9.5 L458.5,-9.5" fill="none" stroke-width="1" stroke-opacity="0.15" stroke="#000000"/></g></g></g><g transform="translate(82,30)" clip-path="url(#AmChartsEl-3)"><g visibility="hidden"/></g><g/><g/><g><g transform="translate(82,30)"><g transform="translate(3,384)" aria-label=" USA 4,025"><path cs="100,100" d="M0.5,0.5 L17.5,-9.5 L38.5,-9.5 L21.5,0.5 L0.5,0.5 Z" fill="#cc0c00" stroke="#FF6600" fill-opacity="1" stroke-width="1" stroke-opacity="0"/><path cs="100,100" d="M0.5,0.5 L17.5,-9.5 L38.5,-9.5" fill="none" stroke-width="1" stroke-opacity="0.1" stroke="#FF6600"/><path cs="100,100" d="M0.5,0.5 L0.5,-342.5 L21.5,-342.5 L21.5,0.5 L0.5,0.5 Z" fill="#cc0c00" stroke="#FF6600" fill-opacity="1" stroke-width="1" stroke-opacity="0" transform="translate(17,-10)"/><path cs="100,100" d="M17.5,-9.5 L17.5,-352.5" fill="none" stroke-width="1" stroke-opacity="0.1" stroke="#FF6600"/><path cs="100,100" d="M0.5,0.5 L0.5,-342.5 L17.5,-352.5 L17.5,-9.5 L0.5,0.5 Z" fill="#cc0c00" stroke="#FF6600" fill-opacity="1" stroke-width="1" stroke-opacity="0"/><path cs="100,100" d="M21.5,0.5 L21.5,-342.5 L38.5,-352.5 L38.5,-9.5 L21.5,0.5 Z" fill="#cc0c00" stroke="#FF6600" fill-opacity="1" stroke-width="1" stroke-opacity="0"/><path cs="100,100" d="M21.5,0.5 L38.5,-9.5 L38.5,-352.5 L21.5,-342.5" fill="none" stroke-width="1" stroke-opacity="0.1" stroke="#FF6600"/><path cs="100,100" d="M0.5,-342.5 L17.5,-352.5 L38.5,-352.5 L21.5,-342.5 L0.5,-342.5 Z" fill="#ff1200" stroke="#FF6600" fill-opacity="1" stroke-width="1" stroke-opacity="0"/><path cs="100,100" d="M0.5,-342.5 L17.5,-352.5 L38.5,-352.5" fill="none" stroke-width="1" stroke-opacity="0.1" stroke="#FF6600"/><path cs="100,100" d="M0.5,0.5 L0.5,-342.5 L21.5,-342.5 L21.5,0.5 L0.5,0.5 Z" fill="#FF0F00" stroke="#FF6600" fill-opacity="1" stroke-width="1" stroke-opacity="0.1"/></g><g transform="translate(29,384)" aria-label=" China 1,882"><path cs="100,100" d="M0.5,0.5 L17.5,-9.5 L38.5,-9.5 L21.5,0.5 L0.5,0.5 Z" fill="#cc5200" stroke="#FF6600" fill-opacity="1" stroke-width="1" stroke-opacity="0"/><path cs="100,100" d="M0.5,0.5 L17.5,-9.5 L38.5,-9.5" fill="none" stroke-width="1" stroke-opacity="0.1" stroke="#FF6600"/><path cs="100,100" d="M0.5,0.5 L0.5,-160.5 L21.5,-160.5 L21.5,0.5 L0.5,0.5 Z" fill="#cc5200" stroke="#FF6600" fill-opacity="1" stroke-width="1" stroke-opacity="0" transform="translate(17,-10)"/><path cs="100,100" d="M17.5,-9.5 L17.5,-170.5" fill="none" stroke-width="1" stroke-opacity="0.1" stroke="#FF6600"/><path cs="100,100" d="M0.5,0.5 L0.5,-160.5 L17.5,-170.5 L17.5,-9.5 L0.5,0.5 Z" fill="#cc5200" stroke="#FF6600" fill-opacity="1" stroke-width="1" stroke-opacity="0"/><path cs="100,100" d="M21.5,0.5 L21.5,-160.5 L38.5,-170.5 L38.5,-9.5 L21.5,0.5 Z" fill="#cc5200" stroke="#FF6600" fill-opacity="1" stroke-width="1" stroke-opacity="0"/><path cs="100,100" d="M21.5,0.5 L38.5,-9.5 L38.5,-170.5 L21.5,-160.5" fill="none" stroke-width="1" stroke-opacity="0.1" stroke="#FF6600"/><path cs="100,100" d="M0.5,-160.5 L17.5,-170.5 L38.5,-170.5 L21.5,-160.5 L0.5,-160.5 Z" fill="#ff7a00" stroke="#FF6600" fill-opacity="1" stroke-width="1" stroke-opacity="0"/><path cs="100,100" d="M0.5,-160.5 L17.5,-170.5 L38.5,-170.5" fill="none" stroke-width="1" stroke-opacity="0.1" stroke="#FF6600"/><path cs="100,100" d="M0.5,0.5 L0.5,-160.5 L21.5,-160.5 L21.5,0.5 L0.5,0.5 Z" fill="#FF6600" stroke="#FF6600" fill-opacity="1" stroke-width="1" stroke-opacity="0.1"/></g><g transform="translate(55,384)" aria-label=" Japan 1,809"><path cs="100,100" d="M0.5,0.5 L17.5,-9.5 L38.5,-9.5 L21.5,0.5 L0.5,0.5 Z" fill="#cc7e01" stroke="#FF6600" fill-opacity="1" stroke-width="1" stroke-opacity="0"/><path cs="100,100" d="M0.5,0.5 L17.5,-9.5 L38.5,-9.5" fill="none" stroke-width="1" stroke-opacity="0.1" stroke="#FF6600"/><path cs="100,100" d="M0.5,0.5 L0.5,-153.5 L21.5,-153.5 L21.5,0.5 L0.5,0.5 Z" fill="#cc7e01" stroke="#FF6600" fill-opacity="1" stroke-width="1" stroke-opacity="0" transform="translate(17,-10)"/><path cs="100,100" d="M17.5,-9.5 L17.5,-163.5" fill="none" stroke-width="1" stroke-opacity="0.1" stroke="#FF6600"/><path cs="100,100" d="M0.5,0.5 L0.5,-153.5 L17.5,-163.5 L17.5,-9.5 L0.5,0.5 Z" fill="#cc7e01" stroke="#FF6600" fill-opacity="1" stroke-width="1" stroke-opacity="0"/><path cs="100,100" d="M21.5,0.5 L21.5,-153.5 L38.5,-163.5 L38.5,-9.5 L21.5,0.5 Z" fill="#cc7e01" stroke="#FF6600" fill-opacity="1" stroke-width="1" stroke-opacity="0"/><path cs="100,100" d="M21.5,0.5 L38.5,-9.5 L38.5,-163.5 L21.5,-153.5" fill="none" stroke-width="1" stroke-opacity="0.1" stroke="#FF6600"/><path cs="100,100" d="M0.5,-153.5 L17.5,-163.5 L38.5,-163.5 L21.5,-153.5 L0.5,-153.5 Z" fill="#ffbe01" stroke="#FF6600" fill-opacity="1" stroke-width="1" stroke-opacity="0"/><path cs="100,100" d="M0.5,-153.5 L17.5,-163.5 L38.5,-163.5" fill="none" stroke-width="1" stroke-opacity="0.1" stroke="#FF6600"/><path cs="100,100" d="M0.5,0.5 L0.5,-153.5 L21.5,-153.5 L21.5,0.5 L0.5,0.5 Z" fill="#FF9E01" stroke="#FF6600" fill-opacity="1" stroke-width="1" stroke-opacity="0.1"/></g><g transform="translate(81,384)" aria-label=" Germany 1,322"><path cs="100,100" d="M0.5,0.5 L17.5,-9.5 L38.5,-9.5 L21.5,0.5 L0.5,0.5 Z" fill="#caa802" stroke="#FF6600" fill-opacity="1" stroke-width="1" stroke-opacity="0"/><path cs="100,100" d="M0.5,0.5 L17.5,-9.5 L38.5,-9.5" fill="none" stroke-width="1" stroke-opacity="0.1" stroke="#FF6600"/><path cs="100,100" d="M0.5,0.5 L0.5,-112.5 L21.5,-112.5 L21.5,0.5 L0.5,0.5 Z" fill="#caa802" stroke="#FF6600" fill-opacity="1" stroke-width="1" stroke-opacity="0" transform="translate(17,-10)"/><path cs="100,100" d="M17.5,-9.5 L17.5,-122.5" fill="none" stroke-width="1" stroke-opacity="0.1" stroke="#FF6600"/><path cs="100,100" d="M0.5,0.5 L0.5,-112.5 L17.5,-122.5 L17.5,-9.5 L0.5,0.5 Z" fill="#caa802" stroke="#FF6600" fill-opacity="1" stroke-width="1" stroke-opacity="0"/><path cs="100,100" d="M21.5,0.5 L21.5,-112.5 L38.5,-122.5 L38.5,-9.5 L21.5,0.5 Z" fill="#caa802" stroke="#FF6600" fill-opacity="1" stroke-width="1" stroke-opacity="0"/><path cs="100,100" d="M21.5,0.5 L38.5,-9.5 L38.5,-122.5 L21.5,-112.5" fill="none" stroke-width="1" stroke-opacity="0.1" stroke="#FF6600"/><path cs="100,100" d="M0.5,-112.5 L17.5,-122.5 L38.5,-122.5 L21.5,-112.5 L0.5,-112.5 Z" fill="#fffc02" stroke="#FF6600" fill-opacity="1" stroke-width="1" stroke-opacity="0"/><path cs="100,100" d="M0.5,-112.5 L17.5,-122.5 L38.5,-122.5" fill="none" stroke-width="1" stroke-opacity="0.1" stroke="#FF6600"/><path cs="100,100" d="M0.5,0.5 L0.5,-112.5 L21.5,-112.5 L21.5,0.5 L0.5,0.5 Z" fill="#FCD202" stroke="#FF6600" fill-opacity="1" stroke-width="1" stroke-opacity="0.1"/></g><g transform="translate(107,384)" aria-label=" UK 1,122"><path cs="100,100" d="M0.5,0.5 L17.5,-9.5 L38.5,-9.5 L21.5,0.5 L0.5,0.5 Z" fill="#c6cc01" stroke="#FF6600" fill-opacity="1" stroke-width="1" stroke-opacity="0"/><path cs="100,100" d="M0.5,0.5 L17.5,-9.5 L38.5,-9.5" fill="none" stroke-width="1" stroke-opacity="0.1" stroke="#FF6600"/><path cs="100,100" d="M0.5,0.5 L0.5,-95.5 L21.5,-95.5 L21.5,0.5 L0.5,0.5 Z" fill="#c6cc01" stroke="#FF6600" fill-opacity="1" stroke-width="1" stroke-opacity="0" transform="translate(17,-10)"/><path cs="100,100" d="M17.5,-9.5 L17.5,-105.5" fill="none" stroke-width="1" stroke-opacity="0.1" stroke="#FF6600"/><path cs="100,100" d="M0.5,0.5 L0.5,-95.5 L17.5,-105.5 L17.5,-9.5 L0.5,0.5 Z" fill="#c6cc01" stroke="#FF6600" fill-opacity="1" stroke-width="1" stroke-opacity="0"/><path cs="100,100" d="M21.5,0.5 L21.5,-95.5 L38.5,-105.5 L38.5,-9.5 L21.5,0.5 Z" fill="#c6cc01" stroke="#FF6600" fill-opacity="1" stroke-width="1" stroke-opacity="0"/><path cs="100,100" d="M21.5,0.5 L38.5,-9.5 L38.5,-105.5 L21.5,-95.5" fill="none" stroke-width="1" stroke-opacity="0.1" stroke="#FF6600"/><path cs="100,100" d="M0.5,-95.5 L17.5,-105.5 L38.5,-105.5 L21.5,-95.5 L0.5,-95.5 Z" fill="#ffff01" stroke="#FF6600" fill-opacity="1" stroke-width="1" stroke-opacity="0"/><path cs="100,100" d="M0.5,-95.5 L17.5,-105.5 L38.5,-105.5" fill="none" stroke-width="1" stroke-opacity="0.1" stroke="#FF6600"/><path cs="100,100" d="M0.5,0.5 L0.5,-95.5 L21.5,-95.5 L21.5,0.5 L0.5,0.5 Z" fill="#F8FF01" stroke="#FF6600" fill-opacity="1" stroke-width="1" stroke-opacity="0.1"/></g><g transform="translate(133,384)" aria-label=" France 1,114"><path cs="100,100" d="M0.5,0.5 L17.5,-9.5 L38.5,-9.5 L21.5,0.5 L0.5,0.5 Z" fill="#8db207" stroke="#FF6600" fill-opacity="1" stroke-width="1" stroke-opacity="0"/><path cs="100,100" d="M0.5,0.5 L17.5,-9.5 L38.5,-9.5" fill="none" stroke-width="1" stroke-opacity="0.1" stroke="#FF6600"/><path cs="100,100" d="M0.5,0.5 L0.5,-94.5 L21.5,-94.5 L21.5,0.5 L0.5,0.5 Z" fill="#8db207" stroke="#FF6600" fill-opacity="1" stroke-width="1" stroke-opacity="0" transform="translate(17,-10)"/><path cs="100,100" d="M17.5,-9.5 L17.5,-104.5" fill="none" stroke-width="1" stroke-opacity="0.1" stroke="#FF6600"/><path cs="100,100" d="M0.5,0.5 L0.5,-94.5 L17.5,-104.5 L17.5,-9.5 L0.5,0.5 Z" fill="#8db207" stroke="#FF6600" fill-opacity="1" stroke-width="1" stroke-opacity="0"/><path cs="100,100" d="M21.5,0.5 L21.5,-94.5 L38.5,-104.5 L38.5,-9.5 L21.5,0.5 Z" fill="#8db207" stroke="#FF6600" fill-opacity="1" stroke-width="1" stroke-opacity="0"/><path cs="100,100" d="M21.5,0.5 L38.5,-9.5 L38.5,-104.5 L21.5,-94.5" fill="none" stroke-width="1" stroke-opacity="0.1" stroke="#FF6600"/><path cs="100,100" d="M0.5,-94.5 L17.5,-104.5 L38.5,-104.5 L21.5,-94.5 L0.5,-94.5 Z" fill="#d3ff0b" stroke="#FF6600" fill-opacity="1" stroke-width="1" stroke-opacity="0"/><path cs="100,100" d="M0.5,-94.5 L17.5,-104.5 L38.5,-104.5" fill="none" stroke-width="1" stroke-opacity="0.1" stroke="#FF6600"/><path cs="100,100" d="M0.5,0.5 L0.5,-94.5 L21.5,-94.5 L21.5,0.5 L0.5,0.5 Z" fill="#B0DE09" stroke="#FF6600" fill-opacity="1" stroke-width="1" stroke-opacity="0.1"/></g><g transform="translate(159,384)" aria-label=" India 984"><path cs="100,100" d="M0.5,0.5 L17.5,-9.5 L38.5,-9.5 L21.5,0.5 L0.5,0.5 Z" fill="#03a811" stroke="#FF6600" fill-opacity="1" stroke-width="1" stroke-opacity="0"/><path cs="100,100" d="M0.5,0.5 L17.5,-9.5 L38.5,-9.5" fill="none" stroke-width="1" stroke-opacity="0.1" stroke="#FF6600"/><path cs="100,100" d="M0.5,0.5 L0.5,-83.5 L21.5,-83.5 L21.5,0.5 L0.5,0.5 Z" fill="#03a811" stroke="#FF6600" fill-opacity="1" stroke-width="1" stroke-opacity="0" transform="translate(17,-10)"/><path cs="100,100" d="M17.5,-9.5 L17.5,-93.5" fill="none" stroke-width="1" stroke-opacity="0.1" stroke="#FF6600"/><path cs="100,100" d="M0.5,0.5 L0.5,-83.5 L17.5,-93.5 L17.5,-9.5 L0.5,0.5 Z" fill="#03a811" stroke="#FF6600" fill-opacity="1" stroke-width="1" stroke-opacity="0"/><path cs="100,100" d="M21.5,0.5 L21.5,-83.5 L38.5,-93.5 L38.5,-9.5 L21.5,0.5 Z" fill="#03a811" stroke="#FF6600" fill-opacity="1" stroke-width="1" stroke-opacity="0"/><path cs="100,100" d="M21.5,0.5 L38.5,-9.5 L38.5,-93.5 L21.5,-83.5" fill="none" stroke-width="1" stroke-opacity="0.1" stroke="#FF6600"/><path cs="100,100" d="M0.5,-83.5 L17.5,-93.5 L38.5,-93.5 L21.5,-83.5 L0.5,-83.5 Z" fill="#05fc19" stroke="#FF6600" fill-opacity="1" stroke-width="1" stroke-opacity="0"/><path cs="100,100" d="M0.5,-83.5 L17.5,-93.5 L38.5,-93.5" fill="none" stroke-width="1" stroke-opacity="0.1" stroke="#FF6600"/><path cs="100,100" d="M0.5,0.5 L0.5,-83.5 L21.5,-83.5 L21.5,0.5 L0.5,0.5 Z" fill="#04D215" stroke="#FF6600" fill-opacity="1" stroke-width="1" stroke-opacity="0.1"/></g><g transform="translate(185,384)" aria-label=" Spain 711"><path cs="100,100" d="M0.5,0.5 L17.5,-9.5 L38.5,-9.5 L21.5,0.5 L0.5,0.5 Z" fill="#0a72a6" stroke="#FF6600" fill-opacity="1" stroke-width="1" stroke-opacity="0"/><path cs="100,100" d="M0.5,0.5 L17.5,-9.5 L38.5,-9.5" fill="none" stroke-width="1" stroke-opacity="0.1" stroke="#FF6600"/><path cs="100,100" d="M0.5,0.5 L0.5,-60.5 L21.5,-60.5 L21.5,0.5 L0.5,0.5 Z" fill="#0a72a6" stroke="#FF6600" fill-opacity="1" stroke-width="1" stroke-opacity="0" transform="translate(17,-10)"/><path cs="100,100" d="M17.5,-9.5 L17.5,-70.5" fill="none" stroke-width="1" stroke-opacity="0.1" stroke="#FF6600"/><path cs="100,100" d="M0.5,0.5 L0.5,-60.5 L17.5,-70.5 L17.5,-9.5 L0.5,0.5 Z" fill="#0a72a6" stroke="#FF6600" fill-opacity="1" stroke-width="1" stroke-opacity="0"/><path cs="100,100" d="M21.5,0.5 L21.5,-60.5 L38.5,-70.5 L38.5,-9.5 L21.5,0.5 Z" fill="#0a72a6" stroke="#FF6600" fill-opacity="1" stroke-width="1" stroke-opacity="0"/><path cs="100,100" d="M21.5,0.5 L38.5,-9.5 L38.5,-70.5 L21.5,-60.5" fill="none" stroke-width="1" stroke-opacity="0.1" stroke="#FF6600"/><path cs="100,100" d="M0.5,-60.5 L17.5,-70.5 L38.5,-70.5 L21.5,-60.5 L0.5,-60.5 Z" fill="#10aaf8" stroke="#FF6600" fill-opacity="1" stroke-width="1" stroke-opacity="0"/><path cs="100,100" d="M0.5,-60.5 L17.5,-70.5 L38.5,-70.5" fill="none" stroke-width="1" stroke-opacity="0.1" stroke="#FF6600"/><path cs="100,100" d="M0.5,0.5 L0.5,-60.5 L21.5,-60.5 L21.5,0.5 L0.5,0.5 Z" fill="#0D8ECF" stroke="#FF6600" fill-opacity="1" stroke-width="1" stroke-opacity="0.1"/></g><g transform="translate(211,384)" aria-label=" Netherlands 665"><path cs="100,100" d="M0.5,0.5 L17.5,-9.5 L38.5,-9.5 L21.5,0.5 L0.5,0.5 Z" fill="#0a42a7" stroke="#FF6600" fill-opacity="1" stroke-width="1" stroke-opacity="0"/><path cs="100,100" d="M0.5,0.5 L17.5,-9.5 L38.5,-9.5" fill="none" stroke-width="1" stroke-opacity="0.1" stroke="#FF6600"/><path cs="100,100" d="M0.5,0.5 L0.5,-56.5 L21.5,-56.5 L21.5,0.5 L0.5,0.5 Z" fill="#0a42a7" stroke="#FF6600" fill-opacity="1" stroke-width="1" stroke-opacity="0" transform="translate(17,-10)"/><path cs="100,100" d="M17.5,-9.5 L17.5,-66.5" fill="none" stroke-width="1" stroke-opacity="0.1" stroke="#FF6600"/><path cs="100,100" d="M0.5,0.5 L0.5,-56.5 L17.5,-66.5 L17.5,-9.5 L0.5,0.5 Z" fill="#0a42a7" stroke="#FF6600" fill-opacity="1" stroke-width="1" stroke-opacity="0"/><path cs="100,100" d="M21.5,0.5 L21.5,-56.5 L38.5,-66.5 L38.5,-9.5 L21.5,0.5 Z" fill="#0a42a7" stroke="#FF6600" fill-opacity="1" stroke-width="1" stroke-opacity="0"/><path cs="100,100" d="M21.5,0.5 L38.5,-9.5 L38.5,-66.5 L21.5,-56.5" fill="none" stroke-width="1" stroke-opacity="0.1" stroke="#FF6600"/><path cs="100,100" d="M0.5,-56.5 L17.5,-66.5 L38.5,-66.5 L21.5,-56.5 L0.5,-56.5 Z" fill="#1062fb" stroke="#FF6600" fill-opacity="1" stroke-width="1" stroke-opacity="0"/><path cs="100,100" d="M0.5,-56.5 L17.5,-66.5 L38.5,-66.5" fill="none" stroke-width="1" stroke-opacity="0.1" stroke="#FF6600"/><path cs="100,100" d="M0.5,0.5 L0.5,-56.5 L21.5,-56.5 L21.5,0.5 L0.5,0.5 Z" fill="#0D52D1" stroke="#FF6600" fill-opacity="1" stroke-width="1" stroke-opacity="0.1"/></g><g transform="translate(236,384)" aria-label=" Russia 580"><path cs="100,100" d="M0.5,0.5 L17.5,-9.5 L38.5,-9.5 L21.5,0.5 L0.5,0.5 Z" fill="#220aa6" stroke="#FF6600" fill-opacity="1" stroke-width="1" stroke-opacity="0"/><path cs="100,100" d="M0.5,0.5 L17.5,-9.5 L38.5,-9.5" fill="none" stroke-width="1" stroke-opacity="0.1" stroke="#FF6600"/><path cs="100,100" d="M0.5,0.5 L0.5,-48.5 L21.5,-48.5 L21.5,0.5 L0.5,0.5 Z" fill="#220aa6" stroke="#FF6600" fill-opacity="1" stroke-width="1" stroke-opacity="0" transform="translate(17,-10)"/><path cs="100,100" d="M17.5,-9.5 L17.5,-58.5" fill="none" stroke-width="1" stroke-opacity="0.1" stroke="#FF6600"/><path cs="100,100" d="M0.5,0.5 L0.5,-48.5 L17.5,-58.5 L17.5,-9.5 L0.5,0.5 Z" fill="#220aa6" stroke="#FF6600" fill-opacity="1" stroke-width="1" stroke-opacity="0"/><path cs="100,100" d="M21.5,0.5 L21.5,-48.5 L38.5,-58.5 L38.5,-9.5 L21.5,0.5 Z" fill="#220aa6" stroke="#FF6600" fill-opacity="1" stroke-width="1" stroke-opacity="0"/><path cs="100,100" d="M21.5,0.5 L38.5,-9.5 L38.5,-58.5 L21.5,-48.5" fill="none" stroke-width="1" stroke-opacity="0.1" stroke="#FF6600"/><path cs="100,100" d="M0.5,-48.5 L17.5,-58.5 L38.5,-58.5 L21.5,-48.5 L0.5,-48.5 Z" fill="#320efa" stroke="#FF6600" fill-opacity="1" stroke-width="1" stroke-opacity="0"/><path cs="100,100" d="M0.5,-48.5 L17.5,-58.5 L38.5,-58.5" fill="none" stroke-width="1" stroke-opacity="0.1" stroke="#FF6600"/><path cs="100,100" d="M0.5,0.5 L0.5,-48.5 L21.5,-48.5 L21.5,0.5 L0.5,0.5 Z" fill="#2A0CD0" stroke="#FF6600" fill-opacity="1" stroke-width="1" stroke-opacity="0.1"/></g><g transform="translate(262,384)" aria-label=" South Korea 443"><path cs="100,100" d="M0.5,0.5 L17.5,-9.5 L38.5,-9.5 L21.5,0.5 L0.5,0.5 Z" fill="#6e0aa6" stroke="#FF6600" fill-opacity="1" stroke-width="1" stroke-opacity="0"/><path cs="100,100" d="M0.5,0.5 L17.5,-9.5 L38.5,-9.5" fill="none" stroke-width="1" stroke-opacity="0.1" stroke="#FF6600"/><path cs="100,100" d="M0.5,0.5 L0.5,-37.5 L21.5,-37.5 L21.5,0.5 L0.5,0.5 Z" fill="#6e0aa6" stroke="#FF6600" fill-opacity="1" stroke-width="1" stroke-opacity="0" transform="translate(17,-10)"/><path cs="100,100" d="M17.5,-9.5 L17.5,-47.5" fill="none" stroke-width="1" stroke-opacity="0.1" stroke="#FF6600"/><path cs="100,100" d="M0.5,0.5 L0.5,-37.5 L17.5,-47.5 L17.5,-9.5 L0.5,0.5 Z" fill="#6e0aa6" stroke="#FF6600" fill-opacity="1" stroke-width="1" stroke-opacity="0"/><path cs="100,100" d="M21.5,0.5 L21.5,-37.5 L38.5,-47.5 L38.5,-9.5 L21.5,0.5 Z" fill="#6e0aa6" stroke="#FF6600" fill-opacity="1" stroke-width="1" stroke-opacity="0"/><path cs="100,100" d="M21.5,0.5 L38.5,-9.5 L38.5,-47.5 L21.5,-37.5" fill="none" stroke-width="1" stroke-opacity="0.1" stroke="#FF6600"/><path cs="100,100" d="M0.5,-37.5 L17.5,-47.5 L38.5,-47.5 L21.5,-37.5 L0.5,-37.5 Z" fill="#a60ef8" stroke="#FF6600" fill-opacity="1" stroke-width="1" stroke-opacity="0"/><path cs="100,100" d="M0.5,-37.5 L17.5,-47.5 L38.5,-47.5" fill="none" stroke-width="1" stroke-opacity="0.1" stroke="#FF6600"/><path cs="100,100" d="M0.5,0.5 L0.5,-37.5 L21.5,-37.5 L21.5,0.5 L0.5,0.5 Z" fill="#8A0CCF" stroke="#FF6600" fill-opacity="1" stroke-width="1" stroke-opacity="0.1"/></g><g transform="translate(288,384)" aria-label=" Canada 441"><path cs="100,100" d="M0.5,0.5 L17.5,-9.5 L38.5,-9.5 L21.5,0.5 L0.5,0.5 Z" fill="#a40a5d" stroke="#FF6600" fill-opacity="1" stroke-width="1" stroke-opacity="0"/><path cs="100,100" d="M0.5,0.5 L17.5,-9.5 L38.5,-9.5" fill="none" stroke-width="1" stroke-opacity="0.1" stroke="#FF6600"/><path cs="100,100" d="M0.5,0.5 L0.5,-37.5 L21.5,-37.5 L21.5,0.5 L0.5,0.5 Z" fill="#a40a5d" stroke="#FF6600" fill-opacity="1" stroke-width="1" stroke-opacity="0" transform="translate(17,-10)"/><path cs="100,100" d="M17.5,-9.5 L17.5,-47.5" fill="none" stroke-width="1" stroke-opacity="0.1" stroke="#FF6600"/><path cs="100,100" d="M0.5,0.5 L0.5,-37.5 L17.5,-47.5 L17.5,-9.5 L0.5,0.5 Z" fill="#a40a5d" stroke="#FF6600" fill-opacity="1" stroke-width="1" stroke-opacity="0"/><path cs="100,100" d="M21.5,0.5 L21.5,-37.5 L38.5,-47.5 L38.5,-9.5 L21.5,0.5 Z" fill="#a40a5d" stroke="#FF6600" fill-opacity="1" stroke-width="1" stroke-opacity="0"/><path cs="100,100" d="M21.5,0.5 L38.5,-9.5 L38.5,-47.5 L21.5,-37.5" fill="none" stroke-width="1" stroke-opacity="0.1" stroke="#FF6600"/><path cs="100,100" d="M0.5,-37.5 L17.5,-47.5 L38.5,-47.5 L21.5,-37.5 L0.5,-37.5 Z" fill="#f6108b" stroke="#FF6600" fill-opacity="1" stroke-width="1" stroke-opacity="0"/><path cs="100,100" d="M0.5,-37.5 L17.5,-47.5 L38.5,-47.5" fill="none" stroke-width="1" stroke-opacity="0.1" stroke="#FF6600"/><path cs="100,100" d="M0.5,0.5 L0.5,-37.5 L21.5,-37.5 L21.5,0.5 L0.5,0.5 Z" fill="#CD0D74" stroke="#FF6600" fill-opacity="1" stroke-width="1" stroke-opacity="0.1"/></g><g transform="translate(314,384)" aria-label=" Brazil 395"><path cs="100,100" d="M0.5,0.5 L17.5,-9.5 L38.5,-9.5 L21.5,0.5 L0.5,0.5 Z" fill="#5e3ebc" stroke="#FF6600" fill-opacity="1" stroke-width="1" stroke-opacity="0"/><path cs="100,100" d="M0.5,0.5 L17.5,-9.5 L38.5,-9.5" fill="none" stroke-width="1" stroke-opacity="0.1" stroke="#FF6600"/><path cs="100,100" d="M0.5,0.5 L0.5,-33.5 L21.5,-33.5 L21.5,0.5 L0.5,0.5 Z" fill="#5e3ebc" stroke="#FF6600" fill-opacity="1" stroke-width="1" stroke-opacity="0" transform="translate(17,-10)"/><path cs="100,100" d="M17.5,-9.5 L17.5,-43.5" fill="none" stroke-width="1" stroke-opacity="0.1" stroke="#FF6600"/><path cs="100,100" d="M0.5,0.5 L0.5,-33.5 L17.5,-43.5 L17.5,-9.5 L0.5,0.5 Z" fill="#5e3ebc" stroke="#FF6600" fill-opacity="1" stroke-width="1" stroke-opacity="0"/><path cs="100,100" d="M21.5,0.5 L21.5,-33.5 L38.5,-43.5 L38.5,-9.5 L21.5,0.5 Z" fill="#5e3ebc" stroke="#FF6600" fill-opacity="1" stroke-width="1" stroke-opacity="0"/><path cs="100,100" d="M21.5,0.5 L38.5,-9.5 L38.5,-43.5 L21.5,-33.5" fill="none" stroke-width="1" stroke-opacity="0.1" stroke="#FF6600"/><path cs="100,100" d="M0.5,-33.5 L17.5,-43.5 L38.5,-43.5 L21.5,-33.5 L0.5,-33.5 Z" fill="#8c5cff" stroke="#FF6600" fill-opacity="1" stroke-width="1" stroke-opacity="0"/><path cs="100,100" d="M0.5,-33.5 L17.5,-43.5 L38.5,-43.5" fill="none" stroke-width="1" stroke-opacity="0.1" stroke="#FF6600"/><path cs="100,100" d="M0.5,0.5 L0.5,-33.5 L21.5,-33.5 L21.5,0.5 L0.5,0.5 Z" fill="#754DEB" stroke="#FF6600" fill-opacity="1" stroke-width="1" stroke-opacity="0.1"/></g><g transform="translate(340,384)" aria-label=" Italy 386"><path cs="100,100" d="M0.5,0.5 L17.5,-9.5 L38.5,-9.5 L21.5,0.5 L0.5,0.5 Z" fill="#b1b1b1" stroke="#FF6600" fill-opacity="1" stroke-width="1" stroke-opacity="0"/><path cs="100,100" d="M0.5,0.5 L17.5,-9.5 L38.5,-9.5" fill="none" stroke-width="1" stroke-opacity="0.1" stroke="#FF6600"/><path cs="100,100" d="M0.5,0.5 L0.5,-32.5 L21.5,-32.5 L21.5,0.5 L0.5,0.5 Z" fill="#b1b1b1" stroke="#FF6600" fill-opacity="1" stroke-width="1" stroke-opacity="0" transform="translate(17,-10)"/><path cs="100,100" d="M17.5,-9.5 L17.5,-42.5" fill="none" stroke-width="1" stroke-opacity="0.1" stroke="#FF6600"/><path cs="100,100" d="M0.5,0.5 L0.5,-32.5 L17.5,-42.5 L17.5,-9.5 L0.5,0.5 Z" fill="#b1b1b1" stroke="#FF6600" fill-opacity="1" stroke-width="1" stroke-opacity="0"/><path cs="100,100" d="M21.5,0.5 L21.5,-32.5 L38.5,-42.5 L38.5,-9.5 L21.5,0.5 Z" fill="#b1b1b1" stroke="#FF6600" fill-opacity="1" stroke-width="1" stroke-opacity="0"/><path cs="100,100" d="M21.5,0.5 L38.5,-9.5 L38.5,-42.5 L21.5,-32.5" fill="none" stroke-width="1" stroke-opacity="0.1" stroke="#FF6600"/><path cs="100,100" d="M0.5,-32.5 L17.5,-42.5 L38.5,-42.5 L21.5,-32.5 L0.5,-32.5 Z" fill="#ffffff" stroke="#FF6600" fill-opacity="1" stroke-width="1" stroke-opacity="0"/><path cs="100,100" d="M0.5,-32.5 L17.5,-42.5 L38.5,-42.5" fill="none" stroke-width="1" stroke-opacity="0.1" stroke="#FF6600"/><path cs="100,100" d="M0.5,0.5 L0.5,-32.5 L21.5,-32.5 L21.5,0.5 L0.5,0.5 Z" fill="#DDDDDD" stroke="#FF6600" fill-opacity="1" stroke-width="1" stroke-opacity="0.1"/></g><g transform="translate(366,384)" aria-label=" Australia 384"><path cs="100,100" d="M0.5,0.5 L17.5,-9.5 L38.5,-9.5 L21.5,0.5 L0.5,0.5 Z" fill="#7a7a7a" stroke="#FF6600" fill-opacity="1" stroke-width="1" stroke-opacity="0"/><path cs="100,100" d="M0.5,0.5 L17.5,-9.5 L38.5,-9.5" fill="none" stroke-width="1" stroke-opacity="0.1" stroke="#FF6600"/><path cs="100,100" d="M0.5,0.5 L0.5,-32.5 L21.5,-32.5 L21.5,0.5 L0.5,0.5 Z" fill="#7a7a7a" stroke="#FF6600" fill-opacity="1" stroke-width="1" stroke-opacity="0" transform="translate(17,-10)"/><path cs="100,100" d="M17.5,-9.5 L17.5,-42.5" fill="none" stroke-width="1" stroke-opacity="0.1" stroke="#FF6600"/><path cs="100,100" d="M0.5,0.5 L0.5,-32.5 L17.5,-42.5 L17.5,-9.5 L0.5,0.5 Z" fill="#7a7a7a" stroke="#FF6600" fill-opacity="1" stroke-width="1" stroke-opacity="0"/><path cs="100,100" d="M21.5,0.5 L21.5,-32.5 L38.5,-42.5 L38.5,-9.5 L21.5,0.5 Z" fill="#7a7a7a" stroke="#FF6600" fill-opacity="1" stroke-width="1" stroke-opacity="0"/><path cs="100,100" d="M21.5,0.5 L38.5,-9.5 L38.5,-42.5 L21.5,-32.5" fill="none" stroke-width="1" stroke-opacity="0.1" stroke="#FF6600"/><path cs="100,100" d="M0.5,-32.5 L17.5,-42.5 L38.5,-42.5 L21.5,-32.5 L0.5,-32.5 Z" fill="#b8b8b8" stroke="#FF6600" fill-opacity="1" stroke-width="1" stroke-opacity="0"/><path cs="100,100" d="M0.5,-32.5 L17.5,-42.5 L38.5,-42.5" fill="none" stroke-width="1" stroke-opacity="0.1" stroke="#FF6600"/><path cs="100,100" d="M0.5,0.5 L0.5,-32.5 L21.5,-32.5 L21.5,0.5 L0.5,0.5 Z" fill="#999999" stroke="#FF6600" fill-opacity="1" stroke-width="1" stroke-opacity="0.1"/></g><g transform="translate(392,384)" aria-label=" Taiwan 338"><path cs="100,100" d="M0.5,0.5 L17.5,-9.5 L38.5,-9.5 L21.5,0.5 L0.5,0.5 Z" fill="#292929" stroke="#FF6600" fill-opacity="1" stroke-width="1" stroke-opacity="0"/><path cs="100,100" d="M0.5,0.5 L17.5,-9.5 L38.5,-9.5" fill="none" stroke-width="1" stroke-opacity="0.1" stroke="#FF6600"/><path cs="100,100" d="M0.5,0.5 L0.5,-28.5 L21.5,-28.5 L21.5,0.5 L0.5,0.5 Z" fill="#292929" stroke="#FF6600" fill-opacity="1" stroke-width="1" stroke-opacity="0" transform="translate(17,-10)"/><path cs="100,100" d="M17.5,-9.5 L17.5,-38.5" fill="none" stroke-width="1" stroke-opacity="0.1" stroke="#FF6600"/><path cs="100,100" d="M0.5,0.5 L0.5,-28.5 L17.5,-38.5 L17.5,-9.5 L0.5,0.5 Z" fill="#292929" stroke="#FF6600" fill-opacity="1" stroke-width="1" stroke-opacity="0"/><path cs="100,100" d="M21.5,0.5 L21.5,-28.5 L38.5,-38.5 L38.5,-9.5 L21.5,0.5 Z" fill="#292929" stroke="#FF6600" fill-opacity="1" stroke-width="1" stroke-opacity="0"/><path cs="100,100" d="M21.5,0.5 L38.5,-9.5 L38.5,-38.5 L21.5,-28.5" fill="none" stroke-width="1" stroke-opacity="0.1" stroke="#FF6600"/><path cs="100,100" d="M0.5,-28.5 L17.5,-38.5 L38.5,-38.5 L21.5,-28.5 L0.5,-28.5 Z" fill="#3d3d3d" stroke="#FF6600" fill-opacity="1" stroke-width="1" stroke-opacity="0"/><path cs="100,100" d="M0.5,-28.5 L17.5,-38.5 L38.5,-38.5" fill="none" stroke-width="1" stroke-opacity="0.1" stroke="#FF6600"/><path cs="100,100" d="M0.5,0.5 L0.5,-28.5 L21.5,-28.5 L21.5,0.5 L0.5,0.5 Z" fill="#333333" stroke="#FF6600" fill-opacity="1" stroke-width="1" stroke-opacity="0.1"/></g><g transform="translate(418,384)" aria-label=" Poland 328"><path cs="100,100" d="M0.5,0.5 L17.5,-9.5 L38.5,-9.5 L21.5,0.5 L0.5,0.5 Z" fill="#000000" stroke="#FF6600" fill-opacity="1" stroke-width="1" stroke-opacity="0"/><path cs="100,100" d="M0.5,0.5 L17.5,-9.5 L38.5,-9.5" fill="none" stroke-width="1" stroke-opacity="0.1" stroke="#FF6600"/><path cs="100,100" d="M0.5,0.5 L0.5,-27.5 L21.5,-27.5 L21.5,0.5 L0.5,0.5 Z" fill="#000000" stroke="#FF6600" fill-opacity="1" stroke-width="1" stroke-opacity="0" transform="translate(17,-10)"/><path cs="100,100" d="M17.5,-9.5 L17.5,-37.5" fill="none" stroke-width="1" stroke-opacity="0.1" stroke="#FF6600"/><path cs="100,100" d="M0.5,0.5 L0.5,-27.5 L17.5,-37.5 L17.5,-9.5 L0.5,0.5 Z" fill="#000000" stroke="#FF6600" fill-opacity="1" stroke-width="1" stroke-opacity="0"/><path cs="100,100" d="M21.5,0.5 L21.5,-27.5 L38.5,-37.5 L38.5,-9.5 L21.5,0.5 Z" fill="#000000" stroke="#FF6600" fill-opacity="1" stroke-width="1" stroke-opacity="0"/><path cs="100,100" d="M21.5,0.5 L38.5,-9.5 L38.5,-37.5 L21.5,-27.5" fill="none" stroke-width="1" stroke-opacity="0.1" stroke="#FF6600"/><path cs="100,100" d="M0.5,-27.5 L17.5,-37.5 L38.5,-37.5 L21.5,-27.5 L0.5,-27.5 Z" fill="#000000" stroke="#FF6600" fill-opacity="1" stroke-width="1" stroke-opacity="0"/><path cs="100,100" d="M0.5,-27.5 L17.5,-37.5 L38.5,-37.5" fill="none" stroke-width="1" stroke-opacity="0.1" stroke="#FF6600"/><path cs="100,100" d="M0.5,0.5 L0.5,-27.5 L21.5,-27.5 L21.5,0.5 L0.5,0.5 Z" fill="#000000" stroke="#FF6600" fill-opacity="1" stroke-width="1" stroke-opacity="0.1"/></g></g></g><g><g transform="translate(82,30)"><g/></g></g><g/><g><path cs="100,100" d="M0.5,384.5 L441.5,384.5 L458.5,374.5" fill="none" stroke-width="1" stroke-opacity="0.3" stroke="#000000" transform="translate(82,30)"/><g><path cs="100,100" d="M0.5,0.5 L441.5,0.5" fill="none" stroke-width="1" stroke-opacity="1" stroke="#000000" transform="translate(82,414)"/></g><g><path cs="100,100" d="M0.5,0.5 L0.5,384.5" fill="none" stroke-width="1" stroke-opacity="1" stroke="#000000" transform="translate(82,30)" visibility="visible"/></g></g><g><g transform="translate(82,30)" clip-path="url(#AmChartsEl-4)" style="pointer-events: none;"><path cs="100,100" d="M17.5,-9.5 L0.5,0.5 L0.5,384.5" fill="none" stroke-width="1" stroke-opacity="0" stroke="#CC0000" visibility="hidden"/><path cs="100,100" d="M0.5,0.5 L441.5,0.5 L458.5,-9.5" fill="none" stroke-width="1" stroke="#CC0000" visibility="hidden"/></g><clipPath id="AmChartsEl-4"><rect x="0" y="0" width="441" height="384" rx="0" ry="0" stroke-width="0"/></clipPath></g><g/><g><g transform="translate(82,30)"/></g><g><g/></g><g><g transform="translate(82,30)" visibility="visible"><text y="6" fill="#000000" font-family="Verdana" font-size="11px" opacity="1" text-anchor="middle" transform="translate(12.970588235294118,403.7265625) rotate(-90)"><tspan y="6" x="0">USA</tspan></text><text y="6" fill="#000000" font-family="Verdana" font-size="11px" opacity="1" text-anchor="middle" transform="translate(64.97058823529412,408.53125) rotate(-90)"><tspan y="6" x="0">Japan</tspan></text><text y="6" fill="#000000" font-family="Verdana" font-size="11px" opacity="1" text-anchor="middle" transform="translate(116.97058823529412,400.0234375) rotate(-90)"><tspan y="6" x="0">UK</tspan></text><text y="6" fill="#000000" font-family="Verdana" font-size="11px" opacity="1" text-anchor="middle" transform="translate(168.97058823529412,406.03125) rotate(-90)"><tspan y="6" x="0">India</tspan></text><text y="6" fill="#000000" font-family="Verdana" font-size="11px" opacity="1" text-anchor="middle" transform="translate(220.97058823529412,425.375) rotate(-90)"><tspan y="6" x="0">Netherlands</tspan></text><text y="6" fill="#000000" font-family="Verdana" font-size="11px" opacity="1" text-anchor="middle" transform="translate(271.97058823529414,426.046875) rotate(-90)"><tspan y="6" x="0">South Korea</tspan></text><text y="6" fill="#000000" font-family="Verdana" font-size="11px" opacity="1" text-anchor="middle" transform="translate(323.97058823529414,407.2265625) rotate(-90)"><tspan y="6" x="0">Brazil</tspan></text><text y="6" fill="#000000" font-family="Verdana" font-size="11px" opacity="1" text-anchor="middle" transform="translate(375.97058823529414,416.6171875) rotate(-90)"><tspan y="6" x="0">Australia</tspan></text><text y="6" fill="#000000" font-family="Verdana" font-size="11px" opacity="1" text-anchor="middle" transform="translate(427.97058823529414,410.3125) rotate(-90)"><tspan y="6" x="0">Poland</tspan></text></g><g transform="translate(82,30)" visibility="visible"><text y="6" fill="#000000" font-family="Verdana" font-size="11px" opacity="1" text-anchor="end" transform="translate(-12,383)"><tspan y="6" x="0">0</tspan></text><text y="6" fill="#000000" font-family="Verdana" font-size="11px" opacity="1" text-anchor="end" transform="translate(-12,340)"><tspan y="6" x="0">500</tspan></text><text y="6" fill="#000000" font-family="Verdana" font-size="11px" opacity="1" text-anchor="end" transform="translate(-12,298)"><tspan y="6" x="0">1,000</tspan></text><text y="6" fill="#000000" font-family="Verdana" font-size="11px" opacity="1" text-anchor="end" transform="translate(-12,255)"><tspan y="6" x="0">1,500</tspan></text><text y="6" fill="#000000" font-family="Verdana" font-size="11px" opacity="1" text-anchor="end" transform="translate(-12,212)"><tspan y="6" x="0">2,000</tspan></text><text y="6" fill="#000000" font-family="Verdana" font-size="11px" opacity="1" text-anchor="end" transform="translate(-12,170)"><tspan y="6" x="0">2,500</tspan></text><text y="6" fill="#000000" font-family="Verdana" font-size="11px" opacity="1" text-anchor="end" transform="translate(-12,127)"><tspan y="6" x="0">3,000</tspan></text><text y="6" fill="#000000" font-family="Verdana" font-size="11px" opacity="1" text-anchor="end" transform="translate(-12,84)"><tspan y="6" x="0">3,500</tspan></text><text y="6" fill="#000000" font-family="Verdana" font-size="11px" opacity="1" text-anchor="end" transform="translate(-12,42)"><tspan y="6" x="0">4,000</tspan></text><text y="6" fill="#000000" font-family="Verdana" font-size="11px" opacity="1" text-anchor="end" transform="translate(-12,-1)"><tspan y="6" x="0">4,500</tspan></text><text y="6" fill="#000000" font-family="Verdana" font-size="12px" opacity="1" font-weight="bold" text-anchor="middle" transform="translate(-61,192) rotate(-90)"><tspan y="6" x="0">Visitors</tspan></text></g></g><g/><g transform="translate(82,30)"/><g/><g/><clipPath id="AmChartsEl-3"><rect x="-1" y="-1" width="443" height="386" rx="0" ry="0" stroke-width="0"/></clipPath></svg></g></svg>